<svg version="1.1" id="Layer_1" xmlns="http://www.w3.org/2000/svg" xmlns:xlink="http://www.w3.org/1999/xlink" x="0px" y="0px"
	 width="100%" viewBox="0 0 257 308" enable-background="new 0 0 257 308" xml:space="preserve">
<path fill="#F3F0E8" opacity="1.000000" stroke="none" 
	d="
M258.000000,79.000000 
	C258.000000,156.000000 258.000000,232.500000 258.000000,309.000000 
	C172.333328,309.000000 86.666664,309.000000 1.000000,309.000000 
	C1.000000,206.333328 1.000000,103.666664 1.000000,1.000000 
	C86.666664,1.000000 172.333328,1.000000 258.000000,1.000000 
	C258.000000,26.833334 258.000000,52.666668 258.000000,79.000000 
M198.140411,14.003355 
	C195.752838,13.951234 193.365250,13.899113 190.376022,13.357302 
	C187.591476,13.520541 184.806931,13.683781 181.152603,14.004762 
	C179.094849,13.951929 177.037094,13.899096 174.793030,13.572073 
	C174.462585,13.382787 174.205139,13.474180 173.095856,14.003861 
	C168.057022,13.951324 163.018173,13.898787 157.793045,13.572058 
	C157.462616,13.382762 157.205170,13.474142 156.095840,14.003663 
	C151.056229,13.951157 146.016632,13.898651 140.670013,13.460692 
	C140.121017,13.589156 139.572037,13.717620 138.140686,14.003352 
	C135.754013,13.951239 133.367325,13.899125 130.793625,13.572548 
	C130.462601,13.383018 130.204514,13.474505 129.091431,14.004868 
	C121.719780,13.952182 114.348129,13.899496 106.391922,13.362012 
	C103.935226,13.524928 101.478539,13.687844 98.093964,14.008307 
	C91.721832,13.954597 85.349709,13.900888 78.328140,13.339522 
	C70.226204,13.508709 62.124271,13.677896 53.095333,14.005064 
	C47.390423,13.952210 41.685513,13.899357 35.794312,13.573139 
	C35.465931,13.383222 35.208054,13.472878 34.226665,14.012391 
	C20.916029,15.913919 13.522315,22.388342 10.029986,35.490444 
	C10.029986,35.490444 10.119223,35.976181 9.876179,36.889774 
	C9.805967,38.717796 9.674660,40.545811 9.674340,42.373844 
	C9.660817,119.771835 9.655182,197.169815 9.675495,274.567810 
	C9.676060,276.718475 9.970295,278.869049 10.032928,281.503967 
	C10.032928,281.503967 10.242874,281.950562 10.289358,282.670013 
	C14.269308,295.429291 23.861877,302.975922 36.558426,302.985107 
	C99.531349,303.030640 162.504349,303.037323 225.477264,302.986145 
	C240.679245,302.973785 252.526947,291.391388 252.543503,276.237183 
	C252.629410,197.604385 252.586670,118.971481 252.565369,40.338615 
	C252.563141,32.168667 249.168137,25.554529 242.940536,20.351431 
	C237.158417,15.520504 230.338882,13.842606 222.329483,13.339734 
	C217.227127,13.508819 212.124786,13.677903 206.169281,14.004595 
	C204.438522,13.951777 202.707779,13.898958 200.670013,13.460688 
	C200.121017,13.589153 199.572037,13.717618 198.140411,14.003355 
z"/>
<path fill="#13181C" opacity="1.000000" stroke="none" 
	d="
M78.977577,13.847180 
	C85.349709,13.900888 91.721832,13.954597 98.995850,13.995216 
	C102.257324,13.937021 104.616898,13.891916 106.976479,13.846811 
	C114.348129,13.899496 121.719780,13.952182 129.795731,13.985599 
	C130.500031,13.966330 130.980652,13.847012 130.980652,13.847012 
	C133.367325,13.899125 135.754013,13.951239 138.905396,13.989684 
	C140.105728,13.932726 140.541382,13.889435 140.977020,13.846146 
	C146.016632,13.898651 151.056229,13.951157 156.797943,13.984461 
	C157.500046,13.965258 157.979340,13.846251 157.979340,13.846251 
	C163.018173,13.898787 168.057022,13.951324 173.797943,13.984575 
	C174.500031,13.965288 174.979340,13.846264 174.979340,13.846264 
	C177.037094,13.899096 179.094849,13.951929 182.031464,13.991531 
	C185.599426,13.934531 188.288559,13.890760 190.977676,13.846991 
	C193.365250,13.899113 195.752838,13.951234 198.905243,13.989685 
	C200.105728,13.932723 200.541382,13.889431 200.977020,13.846138 
	C202.707779,13.898958 204.438522,13.951777 207.057281,13.991505 
	C212.955673,13.934038 217.966080,13.889663 222.976486,13.845286 
	C230.338882,13.842606 237.158417,15.520504 242.940536,20.351431 
	C249.168137,25.554529 252.563141,32.168667 252.565369,40.338615 
	C252.586670,118.971481 252.629410,197.604385 252.543503,276.237183 
	C252.526947,291.391388 240.679245,302.973785 225.477264,302.986145 
	C162.504349,303.037323 99.531349,303.030640 36.558426,302.985107 
	C23.861877,302.975922 14.269308,295.429291 10.384191,282.202515 
	C10.619100,281.400574 10.501956,281.162140 10.127592,281.019684 
	C9.970295,278.869049 9.676060,276.718475 9.675495,274.567810 
	C9.655182,197.169815 9.660817,119.771835 9.674340,42.373844 
	C9.674660,40.545811 9.805967,38.717796 10.139887,36.353432 
	C10.624846,35.518147 10.563548,35.257275 10.219703,35.034470 
	C13.522315,22.388342 20.916029,15.913919 34.863388,13.988861 
	C35.500111,13.965331 35.980602,13.846503 35.980602,13.846503 
	C41.685513,13.899357 47.390423,13.952210 54.022079,13.991883 
	C62.958408,13.934861 70.967995,13.891021 78.977577,13.847180 
M36.915462,293.793610 
	C99.224594,293.785156 161.533737,293.794586 223.842834,293.753326 
	C236.481125,293.744965 243.655762,286.508575 243.750336,273.960205 
	C243.825607,263.972382 243.924591,253.984787 244.583725,243.390289 
	C244.393463,236.927811 244.203201,230.465332 243.797623,223.094635 
	C243.868469,218.729004 243.939316,214.363373 244.572189,209.412781 
	C244.384827,205.942596 244.197449,202.472412 243.793381,198.086487 
	C243.865646,182.056900 243.937912,166.027328 244.582169,149.391434 
	C244.698715,134.827698 244.825760,120.264023 244.892334,105.700066 
	C244.894913,105.135475 244.317322,104.568237 243.793381,103.086563 
	C243.865662,95.723625 243.937958,88.360695 244.494247,80.622932 
	C244.332825,79.749336 244.171417,78.875748 243.793228,77.086601 
	C243.865753,70.056984 243.938263,63.027370 244.495667,55.623577 
	C244.334091,54.749802 244.172531,53.876030 243.796249,52.088726 
	C243.787094,49.950645 243.770386,47.812561 243.770065,45.674480 
	C243.768005,32.141663 240.558182,27.523676 227.815948,22.693558 
	C227.548447,22.768692 227.280945,22.843826 226.341003,23.080360 
	C225.887817,23.020292 225.434631,22.960224 224.350159,22.365786 
	C223.537018,22.243542 222.723938,22.014763 221.910751,22.014366 
	C184.859619,21.996311 147.808472,21.989456 110.757401,22.035816 
	C109.510712,22.037376 108.264732,22.599434 106.094131,23.081053 
	C94.723351,23.021231 83.352562,22.961407 71.351097,22.366203 
	C62.573231,22.545803 53.795364,22.725401 44.121220,23.085447 
	C41.076679,23.032244 38.032143,22.979042 34.790264,22.634270 
	C34.528412,22.747776 34.266556,22.861282 33.338390,23.297321 
	C25.011992,25.242405 20.059669,30.371214 17.882210,39.315903 
	C17.587795,40.735691 17.036514,42.155338 17.035751,43.575283 
	C16.994408,120.498123 16.989037,197.420990 17.071058,274.343781 
	C17.072752,275.931854 18.142849,277.518829 18.931139,279.714813 
	C20.933235,288.253021 26.930874,292.302307 35.204605,294.319519 
	C35.469696,294.216187 35.734783,294.112854 36.915462,293.793610 
z"/>
<path fill="#FDFDFB" opacity="1.000000" stroke="none" 
	d="
M78.652863,13.593351 
	C70.967995,13.891021 62.958408,13.934861 54.485580,13.912892 
	C62.124271,13.677896 70.226204,13.508709 78.652863,13.593351 
z"/>
<path fill="#FDFDFB" opacity="1.000000" stroke="none" 
	d="
M222.652985,13.592510 
	C217.966080,13.889663 212.955673,13.934038 207.483856,13.912701 
	C212.124786,13.677903 217.227127,13.508819 222.652985,13.592510 
z"/>
<path fill="#FDFDFB" opacity="1.000000" stroke="none" 
	d="
M190.676849,13.602146 
	C188.288559,13.890760 185.599426,13.934531 182.466339,13.912661 
	C184.806931,13.683781 187.591476,13.520541 190.676849,13.602146 
z"/>
<path fill="#FDFDFB" opacity="1.000000" stroke="none" 
	d="
M106.684204,13.604411 
	C104.616898,13.891916 102.257324,13.937021 99.459793,13.916443 
	C101.478539,13.687844 103.935226,13.524928 106.684204,13.604411 
z"/>
<path fill="#FDFDFB" opacity="1.000000" stroke="none" 
	d="
M200.823517,13.653413 
	C200.541382,13.889431 200.105728,13.932723 199.346558,13.911049 
	C199.572037,13.717618 200.121017,13.589153 200.823517,13.653413 
z"/>
<path fill="#FDFDFB" opacity="1.000000" stroke="none" 
	d="
M140.823517,13.653419 
	C140.541382,13.889435 140.105728,13.932726 139.346558,13.911050 
	C139.572037,13.717620 140.121017,13.589156 140.823517,13.653419 
z"/>
<path fill="#04080B" opacity="1.000000" stroke="none" 
	d="
M10.124845,35.262459 
	C10.563548,35.257275 10.624846,35.518147 10.261409,35.896637 
	C10.119223,35.976181 10.029986,35.490444 10.124845,35.262459 
z"/>
<path fill="#FDFDFB" opacity="1.000000" stroke="none" 
	d="
M174.886185,13.709168 
	C174.979340,13.846264 174.500031,13.965288 174.260376,13.905771 
	C174.205139,13.474180 174.462585,13.382787 174.886185,13.709168 
z"/>
<path fill="#FDFDFB" opacity="1.000000" stroke="none" 
	d="
M157.886200,13.709154 
	C157.979340,13.846251 157.500046,13.965258 157.260376,13.905727 
	C157.205170,13.474142 157.462616,13.382762 157.886200,13.709154 
z"/>
<path fill="#FDFDFB" opacity="1.000000" stroke="none" 
	d="
M130.887146,13.709780 
	C130.980652,13.847012 130.500031,13.966330 130.259705,13.906668 
	C130.204514,13.474505 130.462601,13.383018 130.887146,13.709780 
z"/>
<path fill="#FDFDFB" opacity="1.000000" stroke="none" 
	d="
M35.887459,13.709822 
	C35.980602,13.846503 35.500111,13.965331 35.260391,13.903719 
	C35.208054,13.472878 35.465931,13.383222 35.887459,13.709822 
z"/>
<path fill="#04080B" opacity="1.000000" stroke="none" 
	d="
M10.080259,281.261841 
	C10.501956,281.162140 10.619100,281.400574 10.360949,281.842773 
	C10.242874,281.950562 10.032928,281.503967 10.080259,281.261841 
z"/>
<path fill="#F5F2EA" opacity="1.000000" stroke="none" 
	d="
M34.987602,22.925840 
	C38.032143,22.979042 41.076679,23.032244 45.032089,23.067123 
	C54.622562,22.999727 63.302174,22.950655 71.981781,22.901585 
	C83.352562,22.961407 94.723351,23.021231 107.018944,23.062542 
	C146.956314,22.996075 185.968887,22.948116 224.981445,22.900158 
	C225.434631,22.960224 225.887817,23.020292 226.918884,23.081882 
	C227.664413,23.054207 227.832077,23.025005 227.999725,22.995806 
	C240.558182,27.523676 243.768005,32.141663 243.770065,45.674480 
	C243.770386,47.812561 243.787094,49.950645 243.817261,52.914993 
	C243.895767,54.493427 243.953278,55.245594 244.010773,55.997757 
	C243.938263,63.027370 243.865753,70.056984 243.814545,77.913818 
	C243.893997,79.493279 243.952133,80.245514 244.010254,80.997757 
	C243.937958,88.360695 243.865662,95.723625 243.814301,104.005798 
	C243.893555,119.949265 243.951874,134.973495 244.010178,149.997742 
	C243.937912,166.027328 243.865646,182.056900 243.814468,198.995300 
	C243.893768,203.268661 243.951981,206.633194 244.010178,209.997742 
	C243.939316,214.363373 243.868469,218.729004 243.818329,224.009918 
	C243.897049,231.282501 243.955048,237.639801 244.013062,243.997101 
	C243.924591,253.984787 243.825607,263.972382 243.750336,273.960205 
	C243.655762,286.508575 236.481125,293.744965 223.842834,293.753326 
	C161.533737,293.794586 99.224594,293.785156 36.207703,293.828949 
	C35.334423,293.916351 35.168903,293.968414 35.003380,294.020477 
	C26.930874,292.302307 20.933235,288.253021 18.879551,278.937561 
	C18.819435,236.858063 18.826216,195.555817 18.797907,154.253586 
	C18.771542,115.786636 18.707817,77.319695 18.660538,38.852753 
	C20.059669,30.371214 25.011992,25.242405 33.920654,23.191765 
	C34.664482,23.032751 34.826042,22.979296 34.987602,22.925840 
M212.926376,169.188538 
	C212.319168,169.050491 211.711945,168.912445 210.343155,168.440125 
	C200.594925,168.481079 190.846710,168.522018 180.265564,168.264771 
	C178.809250,168.363693 177.352936,168.462601 174.995789,168.396820 
	C170.696335,168.450821 166.396896,168.504807 161.323624,168.264206 
	C160.514587,168.363281 159.705551,168.462341 158.004517,168.397003 
	C154.369156,168.452316 150.733810,168.507629 146.265518,168.264862 
	C144.809219,168.363739 143.352921,168.462616 140.987534,168.396515 
	C121.358040,168.452377 101.728546,168.508240 81.236870,168.262360 
	C79.123207,168.363342 77.009537,168.464310 73.987450,168.397171 
	C65.970657,168.555450 57.953869,168.713715 49.315075,168.843277 
	C48.888844,169.232819 48.462612,169.622360 47.469460,170.549240 
	C46.349838,176.249634 47.410442,177.584259 53.933216,177.719009 
	C101.800583,177.732376 149.667953,177.751160 197.535324,177.749527 
	C201.684052,177.749390 205.832779,177.614639 210.629013,177.729553 
	C211.785614,176.827560 212.942200,175.925552 214.615585,174.579453 
	C214.151855,172.984756 213.688126,171.390076 213.049652,169.944244 
	C213.049652,169.944244 213.199585,169.770432 212.926376,169.188538 
M51.395100,239.211349 
	C50.598644,239.481369 49.802189,239.751389 48.403030,240.054733 
	C48.204540,240.388626 48.006054,240.722519 47.176289,241.510956 
	C46.720387,247.048080 47.614063,248.172974 52.905048,248.220169 
	C61.224350,248.294373 69.544655,248.264236 77.864532,248.264145 
	C99.329826,248.263901 120.795128,248.252060 142.260422,248.255737 
	C145.095581,248.256226 147.733047,247.997772 148.020065,244.327866 
	C148.246674,241.430237 147.287262,239.453384 143.067505,239.251877 
	C112.716766,239.305695 82.366028,239.359512 51.395100,239.211349 
M138.594162,82.128128 
	C138.601364,75.497810 138.429977,68.860817 138.677383,62.239475 
	C138.847534,57.685806 137.274628,54.555931 132.798294,52.620258 
	C132.475937,52.410034 132.216187,52.492363 131.092697,53.035912 
	C106.019638,53.041553 80.946503,53.081131 55.873619,53.018070 
	C51.887913,53.008049 48.631462,53.792667 46.983963,58.830460 
	C47.018551,60.213215 47.053139,61.595970 46.903336,63.882759 
	C46.965637,67.260666 47.027939,70.638573 46.937920,74.834145 
	C46.987488,76.215637 47.037056,77.597130 46.902279,79.902702 
	C46.963787,91.607178 47.025291,103.311661 46.935429,115.890236 
	C46.986294,118.252815 47.037163,120.615395 46.904541,123.826340 
	C46.966164,125.556038 47.027786,127.285744 46.938122,129.901108 
	C47.035236,132.582535 47.132351,135.263947 47.255383,138.611359 
	C48.850735,139.999893 50.446087,141.388443 52.755859,142.971817 
	C53.492409,142.934738 54.228958,142.897644 55.894066,143.027313 
	C63.937618,142.970810 71.981171,142.914291 80.947121,142.988785 
	C85.953064,142.945236 90.959015,142.901688 96.893684,143.024292 
	C106.270523,142.970779 115.647369,142.917267 125.898315,142.993958 
	C128.250229,142.934998 130.602142,142.876038 133.669998,142.901733 
	C135.316452,140.815598 138.354599,138.752518 138.389633,136.639664 
	C138.675018,119.425667 138.399033,102.202354 138.555954,84.346001 
	C138.468536,83.904808 138.381104,83.463615 138.594162,82.128128 
M204.375092,203.975479 
	C154.435959,203.975342 104.496819,203.974991 54.557682,203.976044 
	C53.226040,203.976074 51.553799,203.489777 50.638863,204.111282 
	C49.085674,205.166367 47.024982,206.910767 47.004833,208.390320 
	C46.983849,209.931793 48.902077,211.793442 50.407566,212.947418 
	C51.256588,213.598206 52.982773,213.123688 54.313831,213.123810 
	C105.418228,213.128571 156.522629,213.129715 207.627029,213.130219 
	C208.625702,213.130234 209.914505,213.510712 210.565155,213.031296 
	C212.117706,211.887344 214.567505,210.225204 214.453110,208.973572 
	C214.293304,207.224808 212.422409,205.150986 210.730576,204.174393 
	C209.351410,203.378281 207.160599,203.988220 204.375092,203.975479 
z"/>
<path fill="#0C0D0F" opacity="1.000000" stroke="none" 
	d="
M18.271374,39.084328 
	C18.707817,77.319695 18.771542,115.786636 18.797907,154.253586 
	C18.826216,195.555817 18.819435,236.858063 18.771238,278.633301 
	C18.142849,277.518829 17.072752,275.931854 17.071058,274.343781 
	C16.989037,197.420990 16.994408,120.498123 17.035751,43.575283 
	C17.036514,42.155338 17.587795,40.735691 18.271374,39.084328 
z"/>
<path fill="#060507" opacity="1.000000" stroke="none" 
	d="
M224.665802,22.632973 
	C185.968887,22.948116 146.956314,22.996075 107.481087,22.972132 
	C108.264732,22.599434 109.510712,22.037376 110.757401,22.035816 
	C147.808472,21.989456 184.859619,21.996311 221.910751,22.014366 
	C222.723938,22.014763 223.537018,22.243542 224.665802,22.632973 
z"/>
<path fill="#050808" opacity="1.000000" stroke="none" 
	d="
M244.296173,149.694580 
	C243.951874,134.973495 243.893555,119.949265 243.922653,104.463623 
	C244.317322,104.568237 244.894913,105.135475 244.892334,105.700066 
	C244.825760,120.264023 244.698715,134.827698 244.296173,149.694580 
z"/>
<path fill="#060507" opacity="1.000000" stroke="none" 
	d="
M71.666443,22.633894 
	C63.302174,22.950655 54.622562,22.999727 45.480225,22.976898 
	C53.795364,22.725401 62.573231,22.545803 71.666443,22.633894 
z"/>
<path fill="#050808" opacity="1.000000" stroke="none" 
	d="
M244.298401,243.693695 
	C243.955048,237.639801 243.897049,231.282501 243.925995,224.464020 
	C244.203201,230.465332 244.393463,236.927811 244.298401,243.693695 
z"/>
<path fill="#050808" opacity="1.000000" stroke="none" 
	d="
M244.291199,209.705261 
	C243.951981,206.633194 243.893768,203.268661 243.922821,199.453171 
	C244.197449,202.472412 244.384827,205.942596 244.291199,209.705261 
z"/>
<path fill="#050808" opacity="1.000000" stroke="none" 
	d="
M244.252258,80.810349 
	C243.952133,80.245514 243.893997,79.493279 243.922943,78.371597 
	C244.171417,78.875748 244.332825,79.749336 244.252258,80.810349 
z"/>
<path fill="#050808" opacity="1.000000" stroke="none" 
	d="
M244.253220,55.810669 
	C243.953278,55.245594 243.895767,54.493427 243.924622,53.371761 
	C244.172531,53.876030 244.334091,54.749802 244.253220,55.810669 
z"/>
<path fill="#060507" opacity="1.000000" stroke="none" 
	d="
M227.907837,22.844681 
	C227.832077,23.025005 227.664413,23.054207 227.255096,23.001183 
	C227.280945,22.843826 227.548447,22.768692 227.907837,22.844681 
z"/>
<path fill="#060507" opacity="1.000000" stroke="none" 
	d="
M34.888931,22.780056 
	C34.826042,22.979296 34.664482,23.032751 34.253815,23.030499 
	C34.266556,22.861282 34.528412,22.747776 34.888931,22.780056 
z"/>
<path fill="#020303" opacity="1.000000" stroke="none" 
	d="
M35.103992,294.169983 
	C35.168903,293.968414 35.334423,293.916351 35.749908,293.936890 
	C35.734783,294.112854 35.469696,294.216187 35.103992,294.169983 
z"/>
<path fill="#10161B" opacity="1.000000" stroke="none" 
	d="
M52.041435,142.776978 
	C50.446087,141.388443 48.850735,139.999893 47.470837,137.968384 
	C47.487331,134.555405 47.288368,131.785431 47.089409,129.015442 
	C47.027786,127.285744 46.966164,125.556038 47.253407,123.118988 
	C47.430447,119.946465 47.258621,117.481300 47.086800,115.016136 
	C47.025291,103.311661 46.963787,91.607178 47.238930,79.198730 
	C47.413795,77.001991 47.252018,75.509239 47.090240,74.016479 
	C47.027939,70.638573 46.965637,67.260666 47.236740,63.195869 
	C47.466927,61.020920 47.363716,59.532867 47.260506,58.044811 
	C48.631462,53.792667 51.887913,53.008049 55.873619,53.018070 
	C80.946503,53.081131 106.019638,53.041553 131.794739,53.020184 
	C132.496780,53.004456 132.982758,52.900005 132.982758,52.900005 
	C137.274628,54.555931 138.847534,57.685806 138.677383,62.239475 
	C138.429977,68.860817 138.601364,75.497810 138.238098,82.656143 
	C138.019318,83.783401 138.156601,84.382645 138.293869,84.981880 
	C138.399033,102.202354 138.675018,119.425667 138.389633,136.639664 
	C138.354599,138.752518 135.316452,140.815598 133.018097,142.622223 
	C129.918869,142.516388 127.471535,142.690063 125.024208,142.863754 
	C115.647369,142.917267 106.270523,142.970779 96.109909,142.684326 
	C90.225655,142.515488 85.125191,142.686630 80.024719,142.857758 
	C71.981171,142.914291 63.937618,142.970810 55.243675,142.728241 
	C53.742664,142.545120 52.892052,142.661041 52.041435,142.776978 
z"/>
<path fill="#111519" opacity="1.000000" stroke="none" 
	d="
M204.852386,203.975098 
	C207.160599,203.988220 209.351410,203.378281 210.730576,204.174393 
	C212.422409,205.150986 214.293304,207.224808 214.453110,208.973572 
	C214.567505,210.225204 212.117706,211.887344 210.565155,213.031296 
	C209.914505,213.510712 208.625702,213.130234 207.627029,213.130219 
	C156.522629,213.129715 105.418228,213.128571 54.313831,213.123810 
	C52.982773,213.123688 51.256588,213.598206 50.407566,212.947418 
	C48.902077,211.793442 46.983849,209.931793 47.004833,208.390320 
	C47.024982,206.910767 49.085674,205.166367 50.638863,204.111282 
	C51.553799,203.489777 53.226040,203.976074 54.557682,203.976044 
	C104.496819,203.974991 154.435959,203.975342 204.852386,203.975098 
z"/>
<path fill="#12161C" opacity="1.000000" stroke="none" 
	d="
M82.099052,168.564087 
	C101.728546,168.508240 121.358040,168.452377 141.591766,168.748413 
	C143.830154,168.921188 145.464294,168.742065 147.098450,168.562958 
	C150.733810,168.507629 154.369156,168.452316 158.556564,168.723618 
	C160.104889,168.886429 161.101166,168.722626 162.097443,168.558807 
	C166.396896,168.504807 170.696335,168.450821 175.595856,168.748581 
	C177.830124,168.921219 179.464294,168.742096 181.098480,168.562973 
	C190.846710,168.522018 200.594925,168.481079 210.905060,168.855347 
	C212.044495,169.437195 212.622040,169.603821 213.199585,169.770432 
	C213.199585,169.770432 213.049652,169.944244 213.132721,170.268372 
	C213.510132,172.069504 213.804474,173.546539 214.098801,175.023560 
	C212.942200,175.925552 211.785614,176.827560 210.147095,177.292007 
	C208.427521,176.570007 207.190079,176.037857 205.952179,176.036789 
	C156.401138,175.994385 106.850037,175.987274 57.299084,176.063660 
	C55.870495,176.065857 54.443371,177.018646 53.015560,177.528198 
	C47.410442,177.584259 46.349838,176.249634 48.039124,170.238495 
	C49.051552,169.575821 49.494312,169.223907 49.937073,168.871994 
	C57.953869,168.713715 65.970657,168.555450 74.618912,168.765381 
	C77.533272,168.943771 79.816162,168.753937 82.099052,168.564087 
z"/>
<path fill="#10161B" opacity="1.000000" stroke="none" 
	d="
M49.005733,240.021408 
	C49.802189,239.751389 50.598644,239.481369 51.857239,239.661865 
	C53.383495,240.408279 54.447186,240.960785 55.511803,240.962570 
	C83.753334,241.010178 111.995026,241.021011 140.236374,240.935165 
	C141.488037,240.931366 142.736755,239.957809 143.986832,239.435959 
	C147.287262,239.453384 148.246674,241.430237 148.020065,244.327866 
	C147.733047,247.997772 145.095581,248.256226 142.260422,248.255737 
	C120.795128,248.252060 99.329826,248.263901 77.864532,248.264145 
	C69.544655,248.264236 61.224350,248.294373 52.905048,248.220169 
	C47.614063,248.172974 46.720387,247.048080 47.736473,241.165405 
	C48.533016,240.553696 48.769375,240.287552 49.005733,240.021408 
z"/>
<path fill="#080B0E" opacity="1.000000" stroke="none" 
	d="
M53.474388,177.623596 
	C54.443371,177.018646 55.870495,176.065857 57.299084,176.063660 
	C106.850037,175.987274 156.401138,175.994385 205.952179,176.036789 
	C207.190079,176.037857 208.427521,176.570007 209.823334,177.198441 
	C205.832779,177.614639 201.684052,177.749390 197.535324,177.749527 
	C149.667953,177.751160 101.800583,177.732376 53.474388,177.623596 
z"/>
<path fill="#080B0E" opacity="1.000000" stroke="none" 
	d="
M143.527161,239.343918 
	C142.736755,239.957809 141.488037,240.931366 140.236374,240.935165 
	C111.995026,241.021011 83.753334,241.010178 55.511803,240.962570 
	C54.447186,240.960785 53.383495,240.408279 52.167336,239.762848 
	C82.366028,239.359512 112.716766,239.305695 143.527161,239.343918 
z"/>
<path fill="#020303" opacity="1.000000" stroke="none" 
	d="
M80.485916,142.923279 
	C85.125191,142.686630 90.225655,142.515488 95.645538,142.601242 
	C90.959015,142.901688 85.953064,142.945236 80.485916,142.923279 
z"/>
<path fill="#3E3F41" opacity="1.000000" stroke="none" 
	d="
M81.667961,168.413239 
	C79.816162,168.753937 77.533272,168.943771 75.073128,168.849457 
	C77.009537,168.464310 79.123207,168.363342 81.667961,168.413239 
z"/>
<path fill="#3E3F41" opacity="1.000000" stroke="none" 
	d="
M180.682022,168.413879 
	C179.464294,168.742096 177.830124,168.921219 176.046280,168.830933 
	C177.352936,168.462601 178.809250,168.363693 180.682022,168.413879 
z"/>
<path fill="#3E3F41" opacity="1.000000" stroke="none" 
	d="
M146.681976,168.413910 
	C145.464294,168.742065 143.830154,168.921188 142.046310,168.830902 
	C143.352921,168.462616 144.809219,168.363739 146.681976,168.413910 
z"/>
<path fill="#3E3F41" opacity="1.000000" stroke="none" 
	d="
M214.357193,174.801514 
	C213.804474,173.546539 213.510132,172.069504 213.220093,170.193939 
	C213.688126,171.390076 214.151855,172.984756 214.357193,174.801514 
z"/>
<path fill="#050808" opacity="1.000000" stroke="none" 
	d="
M47.013763,129.458282 
	C47.288368,131.785431 47.487331,134.555405 47.457878,137.635376 
	C47.132351,135.263947 47.035236,132.582535 47.013763,129.458282 
z"/>
<path fill="#020303" opacity="1.000000" stroke="none" 
	d="
M125.461258,142.928864 
	C127.471535,142.690063 129.918869,142.516388 132.660126,142.579895 
	C130.602142,142.876038 128.250229,142.934998 125.461258,142.928864 
z"/>
<path fill="#050808" opacity="1.000000" stroke="none" 
	d="
M47.011116,115.453186 
	C47.258621,117.481300 47.430447,119.946465 47.345150,122.694801 
	C47.037163,120.615395 46.986294,118.252815 47.011116,115.453186 
z"/>
<path fill="#3E3F41" opacity="1.000000" stroke="none" 
	d="
M161.710541,168.411499 
	C161.101166,168.722626 160.104889,168.886429 159.002563,168.805817 
	C159.705551,168.462341 160.514587,168.363281 161.710541,168.411499 
z"/>
<path fill="#050808" opacity="1.000000" stroke="none" 
	d="
M47.014080,74.425308 
	C47.252018,75.509239 47.413795,77.001991 47.331100,78.736687 
	C47.037056,77.597130 46.987488,76.215637 47.014080,74.425308 
z"/>
<path fill="#050808" opacity="1.000000" stroke="none" 
	d="
M47.122234,58.437637 
	C47.363716,59.532867 47.466927,61.020920 47.328934,62.743851 
	C47.053139,61.595970 47.018551,60.213215 47.122234,58.437637 
z"/>
<path fill="#080B0E" opacity="1.000000" stroke="none" 
	d="
M138.424911,84.663940 
	C138.156601,84.382645 138.019318,83.783401 138.087860,83.103294 
	C138.381104,83.463615 138.468536,83.904808 138.424911,84.663940 
z"/>
<path fill="#020303" opacity="1.000000" stroke="none" 
	d="
M52.398647,142.874390 
	C52.892052,142.661041 53.742664,142.545120 54.779396,142.644867 
	C54.228958,142.897644 53.492409,142.934738 52.398647,142.874390 
z"/>
<path fill="#3E3F41" opacity="1.000000" stroke="none" 
	d="
M213.062988,169.479492 
	C212.622040,169.603821 212.044495,169.437195 211.285843,169.022476 
	C211.711945,168.912445 212.319168,169.050491 213.062988,169.479492 
z"/>
<path fill="#3E3F41" opacity="1.000000" stroke="none" 
	d="
M49.626076,168.857635 
	C49.494312,169.223907 49.051552,169.575821 48.322586,169.969818 
	C48.462612,169.622360 48.888844,169.232819 49.626076,168.857635 
z"/>
<path fill="#FDFDFB" opacity="1.000000" stroke="none" 
	d="
M132.890533,52.760132 
	C132.982758,52.900005 132.496780,53.004456 132.257904,52.935852 
	C132.216187,52.492363 132.475937,52.410034 132.890533,52.760132 
z"/>
<path fill="#080B0E" opacity="1.000000" stroke="none" 
	d="
M48.704380,240.038071 
	C48.769375,240.287552 48.533016,240.553696 48.052113,240.938126 
	C48.006054,240.722519 48.204540,240.388626 48.704380,240.038071 
z"/>
</svg>